<?xml version="1.0" standalone="no"?>
<!DOCTYPE svg PUBLIC "-//W3C//DTD SVG 20010904//EN"
 "http://www.w3.org/TR/2001/REC-SVG-20010904/DTD/svg10.dtd">
<svg version="1.0" xmlns="http://www.w3.org/2000/svg"
 width="544.000000pt" height="544.000000pt" viewBox="0 0 544.000000 544.000000"
 preserveAspectRatio="xMidYMid meet">
<metadata>
Created by potrace 1.14, written by Peter Selinger 2001-2017
</metadata>
<g transform="translate(0.000000,544.000000) scale(0.100000,-0.100000)"
fill="#000000" stroke="none">
<path d="M2652 4784 c-18 -10 -45 -33 -60 -52 -25 -32 -27 -45 -32 -146 l-5
-111 -120 -1 c-107 -1 -334 -10 -455 -19 -120 -9 -283 -23 -335 -30 -16 -2
-61 -7 -100 -11 -38 -4 -72 -8 -75 -9 -3 -1 -36 -5 -75 -9 -38 -5 -77 -10 -85
-11 -19 -3 -83 -13 -130 -19 -212 -30 -582 -101 -619 -120 -50 -26 -76 -73
-76 -138 0 -63 18 -97 75 -135 41 -28 79 -29 206 -3 55 11 113 23 129 26 17 2
37 7 45 9 8 2 34 7 57 10 23 2 48 6 55 7 17 4 19 16 -67 -337 -154 -630 -255
-1042 -260 -1065 -2 -8 -18 -71 -35 -140 -17 -69 -33 -132 -35 -140 -1 -8 -17
-73 -35 -145 -17 -71 -33 -137 -35 -145 -1 -8 -8 -35 -15 -59 -38 -144 -2
-288 98 -386 63 -62 149 -96 352 -141 138 -30 460 -24 570 11 10 3 27 8 38 10
62 12 163 48 203 74 114 72 180 196 173 326 -2 45 -117 543 -181 785 -3 14 -7
32 -9 40 -2 8 -22 89 -44 180 -23 91 -43 173 -45 183 -2 10 -7 27 -10 37 -3
10 -7 27 -9 37 -2 10 -18 77 -36 148 -83 344 -102 423 -144 595 -25 101 -42
188 -38 191 4 4 34 10 67 13 33 4 83 9 110 12 82 8 126 12 215 19 47 4 101 8
120 10 86 7 335 18 440 19 l115 1 3 -1514 c1 -833 -1 -1518 -5 -1522 -5 -4
-44 -10 -88 -14 -111 -10 -126 -11 -160 -18 -16 -4 -48 -9 -70 -12 -156 -21
-474 -120 -518 -161 -118 -109 -4 -309 151 -266 20 6 62 18 92 27 90 28 262
74 294 80 17 2 45 7 61 10 143 24 213 29 400 30 218 0 301 -8 464 -41 138 -27
228 -52 338 -91 57 -20 82 -24 118 -19 49 8 97 42 120 87 33 63 6 167 -53 201
-54 32 -329 115 -442 134 -14 3 -47 9 -75 14 -27 5 -70 11 -95 14 -25 3 -70 9
-100 13 -30 4 -67 7 -82 6 l-28 0 0 1522 0 1522 128 -2 c184 -4 347 -13 532
-30 25 -2 83 -6 130 -10 47 -3 99 -8 115 -10 17 -2 62 -7 100 -11 39 -3 71 -8
73 -9 2 -2 -15 -79 -38 -171 -23 -93 -43 -176 -45 -184 -1 -8 -8 -33 -13 -55
-6 -22 -13 -51 -16 -65 -2 -14 -45 -189 -95 -390 -121 -494 -280 -1143 -286
-1170 -1 -8 -8 -33 -14 -55 -39 -148 -5 -288 96 -389 62 -62 151 -98 353 -142
138 -30 460 -24 570 11 10 3 27 8 38 10 209 40 340 153 371 320 17 89 24 54
-199 960 -73 298 -105 429 -225 920 -41 171 -77 316 -80 324 -4 10 5 12 42 8
48 -5 232 -39 310 -57 93 -22 148 -8 196 50 34 40 42 86 25 146 -23 82 -94
114 -338 150 -19 3 -42 7 -50 9 -8 2 -28 6 -45 9 -16 3 -84 14 -150 25 -66 11
-145 23 -175 27 -30 4 -57 8 -60 9 -3 1 -39 5 -80 10 -41 5 -77 9 -80 10 -3 1
-36 5 -75 9 -38 4 -81 9 -95 11 -14 2 -65 6 -115 10 -49 3 -97 8 -105 10 -27
7 -437 27 -585 29 l-110 1 -5 110 c-5 119 -19 152 -75 189 -39 25 -113 30
-153 10z m-1277 -1629 c37 -148 84 -344 106 -435 23 -91 42 -172 44 -180 2 -9
17 -72 34 -140 17 -69 33 -134 36 -145 2 -11 11 -45 19 -77 8 -31 17 -67 20
-80 2 -12 13 -59 24 -103 12 -44 23 -92 26 -106 5 -33 -15 -65 -46 -72 -13 -2
-50 -12 -83 -21 -33 -9 -80 -20 -105 -24 -53 -8 -300 -7 -349 1 -46 9 -193 47
-203 54 -31 18 -26 61 37 303 10 38 86 358 91 379 3 14 7 28 9 31 2 4 7 21 10
39 3 18 16 76 30 129 39 157 172 704 180 742 4 19 12 46 17 60 12 29 1 67 103
-355z m2813 275 c13 -55 24 -103 24 -107 0 -5 4 -18 9 -31 5 -12 11 -33 13
-45 2 -12 18 -80 36 -152 224 -914 290 -1188 294 -1211 7 -38 -23 -62 -105
-83 -124 -32 -217 -42 -339 -37 -124 5 -137 7 -252 36 -43 11 -80 20 -83 20
-2 0 -12 11 -20 24 -14 21 -13 33 15 147 17 68 32 131 34 139 2 8 27 110 56
225 54 222 80 328 86 358 2 10 6 27 9 37 3 10 7 27 9 37 2 10 9 38 16 63 7 25
13 52 15 60 2 8 22 92 45 185 23 94 43 177 45 185 2 8 8 35 15 60 14 51 13 45
30 128 7 34 15 62 19 62 4 0 17 -45 29 -100z"/>
</g>
</svg>
